<?xml version="1.0" encoding="UTF-8" standalone="no"?>
<!DOCTYPE svg PUBLIC "-//W3C//DTD SVG 1.1//EN"
 "http://www.w3.org/Graphics/SVG/1.1/DTD/svg11.dtd">
<!-- Generated by graphviz version 2.40.1 (20161225.0304)
 -->
<!-- Title: %0 Pages: 1 -->
<svg width="130pt" height="1110pt"
 viewBox="0.00 0.00 130.00 1109.60" xmlns="http://www.w3.org/2000/svg" xmlns:xlink="http://www.w3.org/1999/xlink">
<g id="graph0" class="graph" transform="scale(1 1) rotate(0) translate(4 1105.6)">
<title>%0</title>
<polygon fill="#ffffff" stroke="transparent" points="-4,4 -4,-1105.6 126,-1105.6 126,4 -4,4"/>
<!-- 0 -->
<g id="node1" class="node">
<title>0</title>
<ellipse fill="none" stroke="#ffa500" cx="90" cy="-1083.6" rx="27" ry="18"/>
<text text-anchor="middle" x="90" y="-1079.4" font-family="Times,serif" font-size="14.00" fill="#000000">0</text>
</g>
<!-- 1 -->
<g id="node2" class="node">
<title>1</title>
<ellipse fill="none" stroke="#000000" cx="90" cy="-994.8" rx="27" ry="18"/>
<text text-anchor="middle" x="90" y="-990.6" font-family="Times,serif" font-size="14.00" fill="#000000">1</text>
</g>
<!-- 0&#45;&gt;1 -->
<g id="edge1" class="edge">
<title>0&#45;&gt;1</title>
<path fill="none" stroke="#000000" d="M90,-1065.2006C90,-1053.0949 90,-1037.0076 90,-1023.2674"/>
<polygon fill="#000000" stroke="#000000" points="93.5001,-1022.872 90,-1012.872 86.5001,-1022.8721 93.5001,-1022.872"/>
<text text-anchor="middle" x="93.5" y="-1035" font-family="Times,serif" font-size="14.00" fill="#000000">1</text>
</g>
<!-- 4 -->
<g id="node3" class="node">
<title>4</title>
<ellipse fill="none" stroke="#000000" cx="90" cy="-906" rx="27" ry="18"/>
<text text-anchor="middle" x="90" y="-901.8" font-family="Times,serif" font-size="14.00" fill="#000000">4</text>
</g>
<!-- 1&#45;&gt;4 -->
<g id="edge2" class="edge">
<title>1&#45;&gt;4</title>
<path fill="none" stroke="#000000" d="M90,-976.4006C90,-964.2949 90,-948.2076 90,-934.4674"/>
<polygon fill="#000000" stroke="#000000" points="93.5001,-934.072 90,-924.072 86.5001,-934.0721 93.5001,-934.072"/>
<text text-anchor="middle" x="93.5" y="-946.2" font-family="Times,serif" font-size="14.00" fill="#000000">1</text>
</g>
<!-- 5 -->
<g id="node4" class="node">
<title>5</title>
<ellipse fill="none" stroke="#000000" cx="27" cy="-817.2" rx="27" ry="18"/>
<text text-anchor="middle" x="27" y="-813" font-family="Times,serif" font-size="14.00" fill="#000000">5</text>
</g>
<!-- 4&#45;&gt;5 -->
<g id="edge3" class="edge">
<title>4&#45;&gt;5</title>
<path fill="none" stroke="#000000" d="M78.4448,-889.7127C69.0019,-876.4027 55.4968,-857.3669 44.693,-842.1388"/>
<polygon fill="#000000" stroke="#000000" points="47.3362,-839.8155 38.6953,-833.6848 41.627,-843.8659 47.3362,-839.8155"/>
<text text-anchor="middle" x="68.5" y="-857.4" font-family="Times,serif" font-size="14.00" fill="#000000">1</text>
</g>
<!-- 6 -->
<g id="node5" class="node">
<title>6</title>
<ellipse fill="none" stroke="#000000" cx="74" cy="-728.4" rx="27" ry="18"/>
<text text-anchor="middle" x="74" y="-724.2" font-family="Times,serif" font-size="14.00" fill="#000000">6</text>
</g>
<!-- 4&#45;&gt;6 -->
<g id="edge4" class="edge">
<title>4&#45;&gt;6</title>
<path fill="none" stroke="#000000" d="M88.3778,-887.9934C85.5867,-857.012 79.8564,-793.406 76.5347,-756.5346"/>
<polygon fill="#000000" stroke="#000000" points="80.0097,-756.0998 75.6265,-746.4543 73.038,-756.728 80.0097,-756.0998"/>
<text text-anchor="middle" x="86.5" y="-813" font-family="Times,serif" font-size="14.00" fill="#000000">1</text>
</g>
<!-- 7 -->
<g id="node6" class="node">
<title>7</title>
<ellipse fill="none" stroke="#000000" cx="74" cy="-639.6" rx="27" ry="18"/>
<text text-anchor="middle" x="74" y="-635.4" font-family="Times,serif" font-size="14.00" fill="#000000">7</text>
</g>
<!-- 4&#45;&gt;7 -->
<g id="edge5" class="edge">
<title>4&#45;&gt;7</title>
<path fill="none" stroke="#000000" d="M95.7466,-888.2025C106.0895,-853.5148 125.3927,-774.6334 110,-710.4 106.173,-694.4298 98.1155,-677.9961 90.592,-664.9863"/>
<polygon fill="#000000" stroke="#000000" points="93.4384,-662.9289 85.2762,-656.1739 87.4445,-666.5445 93.4384,-662.9289"/>
<text text-anchor="middle" x="118.5" y="-768.6" font-family="Times,serif" font-size="14.00" fill="#000000">1</text>
</g>
<!-- 5&#45;&gt;6 -->
<g id="edge6" class="edge">
<title>5&#45;&gt;6</title>
<path fill="none" stroke="#000000" d="M36.0621,-800.0785C42.8892,-787.1795 52.3708,-769.2655 60.147,-754.5734"/>
<polygon fill="#000000" stroke="#000000" points="63.3812,-755.9447 64.9657,-745.469 57.1943,-752.67 63.3812,-755.9447"/>
<text text-anchor="middle" x="58.5" y="-768.6" font-family="Times,serif" font-size="14.00" fill="#000000">1</text>
</g>
<!-- 5&#45;&gt;7 -->
<g id="edge7" class="edge">
<title>5&#45;&gt;7</title>
<path fill="none" stroke="#000000" d="M24.9483,-798.9856C23.1292,-777.3575 21.9846,-740.4335 31,-710.4 36.0055,-693.725 45.893,-676.9879 54.9258,-663.9765"/>
<polygon fill="#000000" stroke="#000000" points="57.9513,-665.7654 60.9723,-655.6104 52.2779,-661.6651 57.9513,-665.7654"/>
<text text-anchor="middle" x="34.5" y="-724.2" font-family="Times,serif" font-size="14.00" fill="#000000">1</text>
</g>
<!-- 6&#45;&gt;7 -->
<g id="edge8" class="edge">
<title>6&#45;&gt;7</title>
<path fill="none" stroke="#000000" d="M74,-710.0006C74,-697.8949 74,-681.8076 74,-668.0674"/>
<polygon fill="#000000" stroke="#000000" points="77.5001,-667.672 74,-657.672 70.5001,-667.6721 77.5001,-667.672"/>
<text text-anchor="middle" x="77.5" y="-679.8" font-family="Times,serif" font-size="14.00" fill="#000000">2</text>
</g>
<!-- 10 -->
<g id="node7" class="node">
<title>10</title>
<ellipse fill="none" stroke="#000000" cx="74" cy="-550.8" rx="27" ry="18"/>
<text text-anchor="middle" x="74" y="-546.6" font-family="Times,serif" font-size="14.00" fill="#000000">10</text>
</g>
<!-- 7&#45;&gt;10 -->
<g id="edge9" class="edge">
<title>7&#45;&gt;10</title>
<path fill="none" stroke="#000000" d="M74,-621.2006C74,-609.0949 74,-593.0076 74,-579.2674"/>
<polygon fill="#000000" stroke="#000000" points="77.5001,-578.872 74,-568.872 70.5001,-578.8721 77.5001,-578.872"/>
<text text-anchor="middle" x="77.5" y="-591" font-family="Times,serif" font-size="14.00" fill="#000000">4</text>
</g>
<!-- 11 -->
<g id="node8" class="node">
<title>11</title>
<ellipse fill="none" stroke="#000000" cx="42" cy="-462" rx="27" ry="18"/>
<text text-anchor="middle" x="42" y="-457.8" font-family="Times,serif" font-size="14.00" fill="#000000">11</text>
</g>
<!-- 10&#45;&gt;11 -->
<g id="edge10" class="edge">
<title>10&#45;&gt;11</title>
<path fill="none" stroke="#000000" d="M67.6778,-533.256C63.1635,-520.7287 57.0028,-503.6326 51.8474,-489.3264"/>
<polygon fill="#000000" stroke="#000000" points="54.992,-487.7288 48.309,-479.5076 48.4066,-490.102 54.992,-487.7288"/>
<text text-anchor="middle" x="64.5" y="-502.2" font-family="Times,serif" font-size="14.00" fill="#000000">4</text>
</g>
<!-- 12 -->
<g id="node9" class="node">
<title>12</title>
<ellipse fill="none" stroke="#000000" cx="74" cy="-373.2" rx="27" ry="18"/>
<text text-anchor="middle" x="74" y="-369" font-family="Times,serif" font-size="14.00" fill="#000000">12</text>
</g>
<!-- 10&#45;&gt;12 -->
<g id="edge11" class="edge">
<title>10&#45;&gt;12</title>
<path fill="none" stroke="#000000" d="M75.3,-532.7699C76.2631,-518.4688 77.4929,-497.9673 78,-480 78.4514,-464.0064 78.4514,-459.9936 78,-444 77.6038,-429.9631 76.7666,-414.3793 75.96,-401.4138"/>
<polygon fill="#000000" stroke="#000000" points="79.4395,-400.9827 75.3,-391.2301 72.4541,-401.4355 79.4395,-400.9827"/>
<text text-anchor="middle" x="81.5" y="-457.8" font-family="Times,serif" font-size="14.00" fill="#000000">4</text>
</g>
<!-- 11&#45;&gt;12 -->
<g id="edge12" class="edge">
<title>11&#45;&gt;12</title>
<path fill="none" stroke="#000000" d="M48.3222,-444.456C52.8365,-431.9287 58.9972,-414.8326 64.1526,-400.5264"/>
<polygon fill="#000000" stroke="#000000" points="67.5934,-401.302 67.691,-390.7076 61.008,-398.9288 67.5934,-401.302"/>
<text text-anchor="middle" x="64.5" y="-413.4" font-family="Times,serif" font-size="14.00" fill="#000000">4</text>
</g>
<!-- 15 -->
<g id="node10" class="node">
<title>15</title>
<ellipse fill="none" stroke="#000000" cx="74" cy="-284.4" rx="27" ry="18"/>
<text text-anchor="middle" x="74" y="-280.2" font-family="Times,serif" font-size="14.00" fill="#000000">15</text>
</g>
<!-- 12&#45;&gt;15 -->
<g id="edge13" class="edge">
<title>12&#45;&gt;15</title>
<path fill="none" stroke="#000000" d="M74,-354.8006C74,-342.6949 74,-326.6076 74,-312.8674"/>
<polygon fill="#000000" stroke="#000000" points="77.5001,-312.472 74,-302.472 70.5001,-312.4721 77.5001,-312.472"/>
<text text-anchor="middle" x="77.5" y="-324.6" font-family="Times,serif" font-size="14.00" fill="#000000">8</text>
</g>
<!-- 16 -->
<g id="node11" class="node">
<title>16</title>
<ellipse fill="none" stroke="#000000" cx="74" cy="-195.6" rx="27" ry="18"/>
<text text-anchor="middle" x="74" y="-191.4" font-family="Times,serif" font-size="14.00" fill="#000000">16</text>
</g>
<!-- 15&#45;&gt;16 -->
<g id="edge14" class="edge">
<title>15&#45;&gt;16</title>
<path fill="none" stroke="#000000" d="M74,-266.0006C74,-253.8949 74,-237.8076 74,-224.0674"/>
<polygon fill="#000000" stroke="#000000" points="77.5001,-223.672 74,-213.672 70.5001,-223.6721 77.5001,-223.672"/>
<text text-anchor="middle" x="77.5" y="-235.8" font-family="Times,serif" font-size="14.00" fill="#000000">8</text>
</g>
<!-- 19 -->
<g id="node12" class="node">
<title>19</title>
<ellipse fill="none" stroke="#000000" cx="74" cy="-106.8" rx="27" ry="18"/>
<text text-anchor="middle" x="74" y="-102.6" font-family="Times,serif" font-size="14.00" fill="#000000">19</text>
</g>
<!-- 16&#45;&gt;19 -->
<g id="edge15" class="edge">
<title>16&#45;&gt;19</title>
<path fill="none" stroke="#000000" d="M74,-177.2006C74,-165.0949 74,-149.0076 74,-135.2674"/>
<polygon fill="#000000" stroke="#000000" points="77.5001,-134.872 74,-124.872 70.5001,-134.8721 77.5001,-134.872"/>
<text text-anchor="middle" x="77.5" y="-147" font-family="Times,serif" font-size="14.00" fill="#000000">8</text>
</g>
<!-- 22 -->
<g id="node13" class="node">
<title>22</title>
<ellipse fill="none" stroke="#ffa500" cx="74" cy="-18" rx="27" ry="18"/>
<text text-anchor="middle" x="74" y="-13.8" font-family="Times,serif" font-size="14.00" fill="#000000">22</text>
</g>
<!-- 19&#45;&gt;22 -->
<g id="edge16" class="edge">
<title>19&#45;&gt;22</title>
<path fill="none" stroke="#000000" d="M74,-88.4006C74,-76.2949 74,-60.2076 74,-46.4674"/>
<polygon fill="#000000" stroke="#000000" points="77.5001,-46.072 74,-36.072 70.5001,-46.0721 77.5001,-46.072"/>
<text text-anchor="middle" x="77.5" y="-58.2" font-family="Times,serif" font-size="14.00" fill="#000000">8</text>
</g>
</g>
</svg>
